<svg width="614" height="270" viewBox="0 0 614 270" fill="none" xmlns="http://www.w3.org/2000/svg">
<path d="M1.00426 16V5.81818H4.82244C5.60464 5.81818 6.26089 5.95407 6.79119 6.22585C7.32481 6.49763 7.72751 6.87879 7.99929 7.36932C8.27438 7.85653 8.41193 8.42495 8.41193 9.07457C8.41193 9.72751 8.27273 10.2943 7.99432 10.7749C7.71922 11.2521 7.31321 11.6217 6.77628 11.8835C6.23935 12.142 5.57978 12.2713 4.79759 12.2713H2.07812V10.7401H4.54901C5.00639 10.7401 5.38092 10.6771 5.67259 10.5511C5.96425 10.4219 6.17969 10.2346 6.31889 9.98935C6.46141 9.74077 6.53267 9.43584 6.53267 9.07457C6.53267 8.7133 6.46141 8.40507 6.31889 8.14986C6.17637 7.89134 5.95928 7.69579 5.66761 7.56321C5.37595 7.42732 4.99976 7.35938 4.53906 7.35938H2.84872V16H1.00426ZM6.2642 11.3864L8.7848 16H6.72656L4.25071 11.3864H6.2642ZM13.3015 16.1491C12.5359 16.1491 11.8746 15.9901 11.3178 15.6719C10.7643 15.3504 10.3384 14.8963 10.0401 14.3097C9.74183 13.7197 9.59268 13.0253 9.59268 12.2266C9.59268 11.4411 9.74183 10.7517 10.0401 10.1584C10.3417 9.56179 10.7627 9.09777 11.3029 8.76633C11.8432 8.43158 12.4779 8.2642 13.207 8.2642C13.6777 8.2642 14.1218 8.34044 14.5394 8.4929C14.9603 8.64205 15.3316 8.87405 15.6531 9.18892C15.9779 9.50379 16.2331 9.90483 16.4187 10.392C16.6043 10.8759 16.6971 11.4527 16.6971 12.1222V12.674H10.4379V11.4609H14.9719C14.9686 11.1162 14.8941 10.8097 14.7482 10.5412C14.6024 10.2694 14.3986 10.0556 14.1367 9.89986C13.8782 9.74408 13.5766 9.66619 13.2319 9.66619C12.864 9.66619 12.5408 9.75568 12.2624 9.93466C11.984 10.1103 11.7669 10.3423 11.6112 10.6307C11.4587 10.9157 11.3808 11.2289 11.3775 11.5703V12.6293C11.3775 13.0734 11.4587 13.4545 11.6211 13.7727C11.7835 14.0876 12.0105 14.3295 12.3022 14.4986C12.5939 14.6643 12.9353 14.7472 13.3263 14.7472C13.5882 14.7472 13.8252 14.7107 14.0373 14.6378C14.2494 14.5616 14.4334 14.4505 14.5891 14.3047C14.7449 14.1589 14.8626 13.9782 14.9421 13.7628L16.6225 13.9517C16.5165 14.3958 16.3143 14.7836 16.016 15.1151C15.721 15.4432 15.3432 15.6984 14.8825 15.8807C14.4218 16.0597 13.8948 16.1491 13.3015 16.1491ZM24.8219 8.36364L22.1025 16H20.1138L17.3944 8.36364H19.3134L21.0684 14.0362H21.1479L22.9078 8.36364H24.8219ZM29.1882 16.1491C28.4226 16.1491 27.7614 15.9901 27.2045 15.6719C26.651 15.3504 26.2251 14.8963 25.9268 14.3097C25.6286 13.7197 25.4794 13.0253 25.4794 12.2266C25.4794 11.4411 25.6286 10.7517 25.9268 10.1584C26.2285 9.56179 26.6494 9.09777 27.1896 8.76633C27.7299 8.43158 28.3646 8.2642 29.0938 8.2642C29.5644 8.2642 30.0085 8.34044 30.4261 8.4929C30.8471 8.64205 31.2183 8.87405 31.5398 9.18892C31.8646 9.50379 32.1198 9.90483 32.3054 10.392C32.491 10.8759 32.5838 11.4527 32.5838 12.1222V12.674H26.3246V11.4609H30.8587C30.8554 11.1162 30.7808 10.8097 30.6349 10.5412C30.4891 10.2694 30.2853 10.0556 30.0234 9.89986C29.7649 9.74408 29.4633 9.66619 29.1186 9.66619C28.7507 9.66619 28.4276 9.75568 28.1491 9.93466C27.8707 10.1103 27.6536 10.3423 27.4979 10.6307C27.3454 10.9157 27.2675 11.2289 27.2642 11.5703V12.6293C27.2642 13.0734 27.3454 13.4545 27.5078 13.7727C27.6702 14.0876 27.8973 14.3295 28.1889 14.4986C28.4806 14.6643 28.822 14.7472 29.2131 14.7472C29.4749 14.7472 29.7119 14.7107 29.924 14.6378C30.1361 14.5616 30.3201 14.4505 30.4759 14.3047C30.6316 14.1589 30.7493 13.9782 30.8288 13.7628L32.5092 13.9517C32.4032 14.3958 32.201 14.7836 31.9027 15.1151C31.6077 15.4432 31.2299 15.6984 30.7692 15.8807C30.3085 16.0597 29.7815 16.1491 29.1882 16.1491ZM35.9061 11.5256V16H34.1064V8.36364H35.8265V9.66122H35.916C36.0917 9.23366 36.3717 8.89394 36.7562 8.64205C37.144 8.39015 37.6229 8.2642 38.193 8.2642C38.72 8.2642 39.179 8.37689 39.5701 8.60227C39.9645 8.82765 40.2695 9.15412 40.4849 9.58168C40.7037 10.0092 40.8114 10.5279 40.8081 11.1378V16H39.0083V11.4162C39.0083 10.9058 38.8758 10.5064 38.6106 10.218C38.3488 9.92969 37.9859 9.78551 37.5218 9.78551C37.207 9.78551 36.9269 9.85511 36.6816 9.99432C36.4397 10.1302 36.2491 10.3274 36.1099 10.5859C35.974 10.8445 35.9061 11.1577 35.9061 11.5256ZM47.5048 12.7884V8.36364H49.3045V16H47.5595V14.6428H47.4799C47.3076 15.0703 47.0242 15.42 46.6298 15.6918C46.2387 15.9635 45.7565 16.0994 45.1831 16.0994C44.6826 16.0994 44.2401 15.9884 43.8556 15.7663C43.4745 15.541 43.1762 15.2145 42.9608 14.7869C42.7453 14.3561 42.6376 13.8357 42.6376 13.2259V8.36364H44.4373V12.9474C44.4373 13.4313 44.5699 13.8158 44.835 14.1009C45.1002 14.3859 45.4482 14.5284 45.8791 14.5284C46.1442 14.5284 46.4011 14.4638 46.6497 14.3345C46.8983 14.2053 47.1021 14.013 47.2612 13.7578C47.4236 13.4993 47.5048 13.1761 47.5048 12.7884ZM54.5359 16.1491C53.7702 16.1491 53.109 15.9901 52.5522 15.6719C51.9987 15.3504 51.5728 14.8963 51.2745 14.3097C50.9762 13.7197 50.8271 13.0253 50.8271 12.2266C50.8271 11.4411 50.9762 10.7517 51.2745 10.1584C51.5761 9.56179 51.997 9.09777 52.5373 8.76633C53.0775 8.43158 53.7122 8.2642 54.4414 8.2642C54.9121 8.2642 55.3562 8.34044 55.7738 8.4929C56.1947 8.64205 56.5659 8.87405 56.8874 9.18892C57.2122 9.50379 57.4674 9.90483 57.6531 10.392C57.8387 10.8759 57.9315 11.4527 57.9315 12.1222V12.674H51.6722V11.4609H56.2063C56.203 11.1162 56.1284 10.8097 55.9826 10.5412C55.8368 10.2694 55.6329 10.0556 55.3711 9.89986C55.1126 9.74408 54.811 9.66619 54.4663 9.66619C54.0984 9.66619 53.7752 9.75568 53.4968 9.93466C53.2184 10.1103 53.0013 10.3423 52.8455 10.6307C52.6931 10.9157 52.6152 11.2289 52.6119 11.5703V12.6293C52.6119 13.0734 52.6931 13.4545 52.8555 13.7727C53.0179 14.0876 53.2449 14.3295 53.5366 14.4986C53.8282 14.6643 54.1696 14.7472 54.5607 14.7472C54.8226 14.7472 55.0595 14.7107 55.2717 14.6378C55.4838 14.5616 55.6677 14.4505 55.8235 14.3047C55.9793 14.1589 56.0969 13.9782 56.1765 13.7628L57.8569 13.9517C57.7508 14.3958 57.5487 14.7836 57.2504 15.1151C56.9554 15.4432 56.5775 15.6984 56.1168 15.8807C55.6561 16.0597 55.1291 16.1491 54.5359 16.1491Z" fill="#1C1C1C"/>
<path d="M77.7841 2.53693V19.2812H76.7898V2.53693H77.7841Z" fill="#1C1C1C" fill-opacity="0.2"/>
<path d="M111 11C111 12.6569 109.657 14 108 14C106.343 14 105 12.6569 105 11C105 9.34315 106.343 8 108 8C109.657 8 111 9.34315 111 11Z" fill="#1C1C1C"/>
<path d="M124.08 9H123.023C122.96 8.69602 122.851 8.42898 122.695 8.19886C122.541 7.96875 122.354 7.77557 122.132 7.61932C121.913 7.46023 121.67 7.34091 121.403 7.26136C121.136 7.18182 120.858 7.14205 120.568 7.14205C120.04 7.14205 119.561 7.27557 119.132 7.54261C118.706 7.80966 118.366 8.20312 118.114 8.72301C117.864 9.2429 117.739 9.88068 117.739 10.6364C117.739 11.392 117.864 12.0298 118.114 12.5497C118.366 13.0696 118.706 13.4631 119.132 13.7301C119.561 13.9972 120.04 14.1307 120.568 14.1307C120.858 14.1307 121.136 14.0909 121.403 14.0114C121.67 13.9318 121.913 13.8139 122.132 13.6577C122.354 13.4986 122.541 13.304 122.695 13.0739C122.851 12.8409 122.96 12.5739 123.023 12.2727H124.08C124 12.7187 123.855 13.1179 123.645 13.4702C123.435 13.8224 123.173 14.1222 122.861 14.3693C122.548 14.6136 122.197 14.7997 121.808 14.9276C121.422 15.0554 121.009 15.1193 120.568 15.1193C119.824 15.1193 119.162 14.9375 118.582 14.5739C118.003 14.2102 117.547 13.6932 117.214 13.0227C116.882 12.3523 116.716 11.5568 116.716 10.6364C116.716 9.71591 116.882 8.92045 117.214 8.25C117.547 7.57955 118.003 7.0625 118.582 6.69886C119.162 6.33523 119.824 6.15341 120.568 6.15341C121.009 6.15341 121.422 6.21733 121.808 6.34517C122.197 6.47301 122.548 6.66051 122.861 6.90767C123.173 7.15199 123.435 7.45028 123.645 7.80256C123.855 8.15199 124 8.55114 124.08 9ZM129.776 12.3239V8.45455H130.782V15H129.776V13.892H129.708C129.554 14.2244 129.316 14.5071 128.992 14.7401C128.668 14.9702 128.259 15.0852 127.765 15.0852C127.355 15.0852 126.992 14.9957 126.674 14.8168C126.355 14.6349 126.105 14.3622 125.924 13.9986C125.742 13.6321 125.651 13.1705 125.651 12.6136V8.45455H126.657V12.5455C126.657 13.0227 126.79 13.4034 127.057 13.6875C127.327 13.9716 127.671 14.1136 128.088 14.1136C128.338 14.1136 128.593 14.0497 128.851 13.9219C129.113 13.794 129.331 13.598 129.507 13.3338C129.686 13.0696 129.776 12.733 129.776 12.3239ZM132.624 15V8.45455H133.595V9.44318H133.663C133.783 9.11932 133.999 8.85653 134.311 8.65483C134.624 8.45312 134.976 8.35227 135.368 8.35227C135.442 8.35227 135.534 8.35369 135.645 8.35653C135.756 8.35937 135.839 8.36364 135.896 8.36932V9.39205C135.862 9.38352 135.784 9.37074 135.662 9.35369C135.543 9.33381 135.416 9.32386 135.283 9.32386C134.964 9.32386 134.68 9.39062 134.43 9.52415C134.183 9.65483 133.987 9.83665 133.842 10.0696C133.7 10.2997 133.629 10.5625 133.629 10.858V15H132.624ZM137.088 15V8.45455H138.06V9.44318H138.128C138.248 9.11932 138.463 8.85653 138.776 8.65483C139.088 8.45312 139.441 8.35227 139.833 8.35227C139.907 8.35227 139.999 8.35369 140.11 8.35653C140.221 8.35937 140.304 8.36364 140.361 8.36932V9.39205C140.327 9.38352 140.249 9.37074 140.127 9.35369C140.007 9.33381 139.881 9.32386 139.748 9.32386C139.429 9.32386 139.145 9.39062 138.895 9.52415C138.648 9.65483 138.452 9.83665 138.307 10.0696C138.165 10.2997 138.094 10.5625 138.094 10.858V15H137.088ZM144.098 15.1364C143.468 15.1364 142.924 14.9972 142.466 14.7188C142.012 14.4375 141.661 14.0455 141.414 13.5426C141.169 13.0369 141.047 12.4489 141.047 11.7784C141.047 11.108 141.169 10.517 141.414 10.0057C141.661 9.49148 142.005 9.09091 142.445 8.80398C142.888 8.5142 143.405 8.36932 143.996 8.36932C144.337 8.36932 144.674 8.42614 145.006 8.53977C145.338 8.65341 145.641 8.83807 145.914 9.09375C146.186 9.34659 146.404 9.68182 146.566 10.0994C146.728 10.517 146.809 11.0312 146.809 11.642V12.0682H141.763V11.1989H145.786C145.786 10.8295 145.712 10.5 145.564 10.2102C145.419 9.92045 145.212 9.69176 144.942 9.52415C144.675 9.35653 144.36 9.27273 143.996 9.27273C143.596 9.27273 143.249 9.37216 142.956 9.57102C142.667 9.76705 142.444 10.0227 142.287 10.3381C142.131 10.6534 142.053 10.9915 142.053 11.3523V11.9318C142.053 12.4261 142.138 12.8452 142.309 13.1889C142.482 13.5298 142.722 13.7898 143.029 13.9688C143.336 14.1449 143.692 14.233 144.098 14.233C144.363 14.233 144.601 14.196 144.814 14.1222C145.03 14.0455 145.216 13.9318 145.373 13.7812C145.529 13.6278 145.65 13.4375 145.735 13.2102L146.706 13.483C146.604 13.8125 146.432 14.1023 146.191 14.3523C145.949 14.5994 145.651 14.7926 145.296 14.9318C144.941 15.0682 144.542 15.1364 144.098 15.1364ZM149.344 11.0625V15H148.338V8.45455H149.31V9.47727H149.395C149.549 9.14489 149.782 8.87784 150.094 8.67614C150.407 8.47159 150.81 8.36932 151.304 8.36932C151.748 8.36932 152.135 8.46023 152.468 8.64205C152.8 8.82102 153.059 9.09375 153.243 9.46023C153.428 9.82386 153.52 10.2841 153.52 10.8409V15H152.515V10.9091C152.515 10.3949 152.381 9.99432 152.114 9.70739C151.847 9.41761 151.48 9.27273 151.015 9.27273C150.694 9.27273 150.407 9.34233 150.154 9.48153C149.904 9.62074 149.706 9.82386 149.561 10.0909C149.417 10.358 149.344 10.6818 149.344 11.0625ZM158.205 8.45455V9.30682H154.812V8.45455H158.205ZM155.801 6.88636H156.807V13.125C156.807 13.4091 156.848 13.6222 156.93 13.7642C157.016 13.9034 157.124 13.9972 157.254 14.0455C157.388 14.0909 157.528 14.1136 157.676 14.1136C157.787 14.1136 157.878 14.108 157.949 14.0966C158.02 14.0824 158.077 14.071 158.119 14.0625L158.324 14.9659C158.256 14.9915 158.161 15.017 158.038 15.0426C157.916 15.071 157.761 15.0852 157.574 15.0852C157.29 15.0852 157.011 15.0241 156.739 14.902C156.469 14.7798 156.244 14.5938 156.065 14.3438C155.889 14.0938 155.801 13.7784 155.801 13.3977V6.88636ZM164.814 15L162.428 6.27273H163.501L165.325 13.3807H165.411L167.268 6.27273H168.462L170.32 13.3807H170.405L172.229 6.27273H173.303L170.916 15H169.825L167.899 8.04545H167.831L165.905 15H164.814ZM176.618 15.1364C175.987 15.1364 175.443 14.9972 174.986 14.7188C174.531 14.4375 174.18 14.0455 173.933 13.5426C173.689 13.0369 173.567 12.4489 173.567 11.7784C173.567 11.108 173.689 10.517 173.933 10.0057C174.18 9.49148 174.524 9.09091 174.964 8.80398C175.408 8.5142 175.925 8.36932 176.516 8.36932C176.857 8.36932 177.193 8.42614 177.526 8.53977C177.858 8.65341 178.161 8.83807 178.433 9.09375C178.706 9.34659 178.923 9.68182 179.085 10.0994C179.247 10.517 179.328 11.0312 179.328 11.642V12.0682H174.283V11.1989H178.305C178.305 10.8295 178.232 10.5 178.084 10.2102C177.939 9.92045 177.732 9.69176 177.462 9.52415C177.195 9.35653 176.879 9.27273 176.516 9.27273C176.115 9.27273 175.768 9.37216 175.476 9.57102C175.186 9.76705 174.963 10.0227 174.807 10.3381C174.651 10.6534 174.572 10.9915 174.572 11.3523V11.9318C174.572 12.4261 174.658 12.8452 174.828 13.1889C175.001 13.5298 175.241 13.7898 175.548 13.9688C175.855 14.1449 176.212 14.233 176.618 14.233C176.882 14.233 177.121 14.196 177.334 14.1222C177.55 14.0455 177.736 13.9318 177.892 13.7812C178.048 13.6278 178.169 13.4375 178.254 13.2102L179.226 13.483C179.124 13.8125 178.952 14.1023 178.71 14.3523C178.469 14.5994 178.17 14.7926 177.815 14.9318C177.46 15.0682 177.061 15.1364 176.618 15.1364ZM183.602 15.1364C182.972 15.1364 182.428 14.9972 181.97 14.7188C181.516 14.4375 181.165 14.0455 180.918 13.5426C180.673 13.0369 180.551 12.4489 180.551 11.7784C180.551 11.108 180.673 10.517 180.918 10.0057C181.165 9.49148 181.509 9.09091 181.949 8.80398C182.392 8.5142 182.909 8.36932 183.5 8.36932C183.841 8.36932 184.178 8.42614 184.51 8.53977C184.842 8.65341 185.145 8.83807 185.418 9.09375C185.69 9.34659 185.908 9.68182 186.07 10.0994C186.232 10.517 186.312 11.0312 186.312 11.642V12.0682H181.267V11.1989H185.29C185.29 10.8295 185.216 10.5 185.068 10.2102C184.923 9.92045 184.716 9.69176 184.446 9.52415C184.179 9.35653 183.864 9.27273 183.5 9.27273C183.099 9.27273 182.753 9.37216 182.46 9.57102C182.17 9.76705 181.947 10.0227 181.791 10.3381C181.635 10.6534 181.557 10.9915 181.557 11.3523V11.9318C181.557 12.4261 181.642 12.8452 181.812 13.1889C181.986 13.5298 182.226 13.7898 182.533 13.9688C182.839 14.1449 183.196 14.233 183.602 14.233C183.866 14.233 184.105 14.196 184.318 14.1222C184.534 14.0455 184.72 13.9318 184.876 13.7812C185.033 13.6278 185.153 13.4375 185.239 13.2102L186.21 13.483C186.108 13.8125 185.936 14.1023 185.695 14.3523C185.453 14.5994 185.155 14.7926 184.8 14.9318C184.445 15.0682 184.045 15.1364 183.602 15.1364ZM188.78 12.6136L188.763 11.3693H188.967L191.831 8.45455H193.075L190.024 11.5398H189.939L188.78 12.6136ZM187.842 15V6.27273H188.848V15H187.842ZM192.001 15L189.445 11.7614L190.161 11.0625L193.28 15H192.001ZM203.787 16.0909V5.18182H204.486V16.0909H203.787ZM205.803 8.67188C205.763 8.29972 205.596 8.00994 205.3 7.80256C205.007 7.59517 204.627 7.49148 204.158 7.49148C203.828 7.49148 203.546 7.54119 203.31 7.64062C203.074 7.74006 202.894 7.875 202.769 8.04545C202.644 8.21591 202.58 8.41051 202.577 8.62926C202.577 8.81108 202.618 8.96875 202.701 9.10227C202.786 9.2358 202.901 9.34943 203.046 9.44318C203.191 9.53409 203.351 9.6108 203.527 9.6733C203.703 9.7358 203.881 9.78835 204.06 9.83097L204.878 10.0355C205.208 10.1122 205.525 10.2159 205.828 10.3466C206.135 10.4773 206.409 10.642 206.651 10.8409C206.895 11.0398 207.088 11.2798 207.23 11.5611C207.373 11.8423 207.444 12.1719 207.444 12.5497C207.444 13.0611 207.313 13.5114 207.051 13.9006C206.79 14.2869 206.412 14.5895 205.918 14.8082C205.426 15.0241 204.831 15.1321 204.132 15.1321C203.453 15.1321 202.864 15.027 202.364 14.8168C201.867 14.6065 201.478 14.2997 201.196 13.8963C200.918 13.4929 200.767 13.0014 200.745 12.4219H202.3C202.323 12.7259 202.417 12.9787 202.581 13.1804C202.746 13.3821 202.961 13.5327 203.225 13.6321C203.492 13.7315 203.79 13.7812 204.12 13.7812C204.463 13.7812 204.765 13.7301 205.023 13.6278C205.284 13.5227 205.489 13.3778 205.637 13.1932C205.784 13.0057 205.86 12.7869 205.863 12.5369C205.86 12.3097 205.793 12.1222 205.662 11.9744C205.532 11.8239 205.348 11.6989 205.113 11.5994C204.88 11.4972 204.607 11.4062 204.294 11.3267L203.301 11.071C202.583 10.8864 202.015 10.6065 201.597 10.2315C201.182 9.85369 200.975 9.35227 200.975 8.72727C200.975 8.21307 201.114 7.76278 201.392 7.37642C201.674 6.99006 202.056 6.69034 202.539 6.47727C203.022 6.26136 203.569 6.15341 204.179 6.15341C204.799 6.15341 205.341 6.26136 205.807 6.47727C206.276 6.69034 206.644 6.98722 206.911 7.3679C207.178 7.74574 207.316 8.1804 207.324 8.67188H205.803ZM211.802 15.1193C211.234 15.1193 210.725 15.0128 210.276 14.7997C209.827 14.5838 209.471 14.2884 209.207 13.9134C208.945 13.5384 208.806 13.1094 208.789 12.6264H210.323C210.352 12.9844 210.506 13.277 210.788 13.5043C211.069 13.7287 211.407 13.8409 211.802 13.8409C212.112 13.8409 212.387 13.7699 212.629 13.6278C212.87 13.4858 213.06 13.2884 213.2 13.0355C213.339 12.7827 213.407 12.4943 213.404 12.1705C213.407 11.8409 213.337 11.5483 213.195 11.2926C213.053 11.0369 212.859 10.8366 212.612 10.6918C212.364 10.544 212.08 10.4702 211.759 10.4702C211.498 10.4673 211.241 10.5156 210.988 10.6151C210.735 10.7145 210.535 10.8452 210.387 11.0071L208.96 10.7727L209.415 6.27273H214.478V7.59375H210.724L210.472 9.90767H210.523C210.685 9.71733 210.914 9.55966 211.21 9.43466C211.505 9.30682 211.829 9.2429 212.181 9.2429C212.71 9.2429 213.181 9.3679 213.596 9.6179C214.011 9.86506 214.337 10.206 214.576 10.6406C214.815 11.0753 214.934 11.5724 214.934 12.1321C214.934 12.7088 214.8 13.223 214.533 13.6747C214.269 14.1236 213.901 14.4773 213.43 14.7358C212.961 14.9915 212.418 15.1193 211.802 15.1193ZM219.464 15.1193C218.83 15.1193 218.268 15.0128 217.776 14.7997C217.288 14.5866 216.904 14.2955 216.626 13.9261C216.35 13.554 216.214 13.1321 216.217 12.6605C216.214 12.294 216.293 11.9574 216.455 11.6506C216.617 11.3438 216.836 11.0881 217.112 10.8835C217.39 10.6761 217.7 10.544 218.04 10.4872V10.4276C217.592 10.3281 217.228 10.0994 216.95 9.74148C216.674 9.38068 216.538 8.96449 216.54 8.4929C216.538 8.04403 216.663 7.64347 216.915 7.29119C217.168 6.93892 217.515 6.66193 217.955 6.46023C218.396 6.25568 218.898 6.15341 219.464 6.15341C220.023 6.15341 220.522 6.25568 220.96 6.46023C221.4 6.66193 221.746 6.93892 221.999 7.29119C222.255 7.64347 222.383 8.04403 222.383 8.4929C222.383 8.96449 222.242 9.38068 221.961 9.74148C221.683 10.0994 221.323 10.3281 220.883 10.4276V10.4872C221.224 10.544 221.531 10.6761 221.803 10.8835C222.079 11.0881 222.298 11.3438 222.46 11.6506C222.624 11.9574 222.707 12.294 222.707 12.6605C222.707 13.1321 222.567 13.554 222.289 13.9261C222.011 14.2955 221.627 14.5866 221.138 14.7997C220.653 15.0128 220.094 15.1193 219.464 15.1193ZM219.464 13.9006C219.79 13.9006 220.075 13.8452 220.316 13.7344C220.558 13.6207 220.745 13.4616 220.879 13.2571C221.012 13.0526 221.08 12.8168 221.083 12.5497C221.08 12.2713 221.008 12.0256 220.866 11.8125C220.727 11.5966 220.535 11.4276 220.29 11.3054C220.049 11.1832 219.773 11.1222 219.464 11.1222C219.151 11.1222 218.873 11.1832 218.629 11.3054C218.384 11.4276 218.191 11.5966 218.049 11.8125C217.91 12.0256 217.842 12.2713 217.844 12.5497C217.842 12.8168 217.907 13.0526 218.04 13.2571C218.174 13.4588 218.362 13.6165 218.603 13.7301C218.847 13.8437 219.134 13.9006 219.464 13.9006ZM219.464 9.92472C219.731 9.92472 219.967 9.87074 220.171 9.76278C220.379 9.65483 220.542 9.50426 220.661 9.31108C220.781 9.1179 220.842 8.89489 220.844 8.64205C220.842 8.39205 220.782 8.1733 220.665 7.9858C220.549 7.79545 220.387 7.64915 220.18 7.54688C219.972 7.44176 219.734 7.3892 219.464 7.3892C219.188 7.3892 218.945 7.44176 218.735 7.54688C218.528 7.64915 218.366 7.79545 218.249 7.9858C218.136 8.1733 218.08 8.39205 218.083 8.64205C218.08 8.89489 218.137 9.1179 218.254 9.31108C218.373 9.50142 218.536 9.65199 218.744 9.76278C218.954 9.87074 219.194 9.92472 219.464 9.92472ZM225.678 13.8068L225.623 14.2756C225.583 14.6335 225.512 14.9972 225.409 15.3665C225.31 15.7386 225.205 16.081 225.094 16.3935C224.983 16.706 224.894 16.9517 224.826 17.1307H223.786C223.826 16.9574 223.88 16.7216 223.948 16.4233C224.019 16.125 224.087 15.7898 224.152 15.4176C224.218 15.0455 224.262 14.6676 224.284 14.2841L224.314 13.8068H225.678ZM227.389 15V13.858L230.419 10.8878C230.708 10.5952 230.95 10.3352 231.143 10.108C231.336 9.88068 231.481 9.66051 231.578 9.44744C231.674 9.23437 231.723 9.0071 231.723 8.76562C231.723 8.49006 231.66 8.25426 231.535 8.05824C231.41 7.85938 231.238 7.70597 231.02 7.59801C230.801 7.49006 230.552 7.43608 230.274 7.43608C229.987 7.43608 229.735 7.49574 229.52 7.61506C229.304 7.73153 229.136 7.89773 229.017 8.11364C228.9 8.32955 228.842 8.58665 228.842 8.88494H227.338C227.338 8.33097 227.464 7.84943 227.717 7.44034C227.97 7.03125 228.318 6.71449 228.761 6.49006C229.207 6.26562 229.718 6.15341 230.295 6.15341C230.88 6.15341 231.395 6.26278 231.838 6.48153C232.281 6.70028 232.625 7 232.869 7.38068C233.116 7.76136 233.24 8.19602 233.24 8.68466C233.24 9.01136 233.177 9.33239 233.052 9.64773C232.927 9.96307 232.707 10.3125 232.392 10.696C232.079 11.0795 231.64 11.544 231.075 12.0895L229.571 13.6193V13.679H233.372V15H227.389ZM238.392 6.27273V15H236.811V7.81108H236.76L234.718 9.11506V7.66619L236.887 6.27273H238.392ZM244.157 6.27273V15H242.576V7.81108H242.525L240.484 9.11506V7.66619L242.653 6.27273H244.157Z" fill="#1C1C1C"/>
<path d="M285 11C285 12.6569 283.657 14 282 14C280.343 14 279 12.6569 279 11C279 9.34315 280.343 8 282 8C283.657 8 285 9.34315 285 11Z" fill="#A8C5DA"/>
<path d="M291.057 15V6.27273H294.006C294.69 6.27273 295.25 6.39631 295.685 6.64347C296.122 6.88778 296.446 7.21875 296.656 7.63636C296.866 8.05398 296.972 8.51989 296.972 9.03409C296.972 9.5483 296.866 10.0156 296.656 10.4361C296.449 10.8565 296.128 11.1918 295.693 11.4418C295.259 11.6889 294.702 11.8125 294.023 11.8125H291.909V10.875H293.989C294.457 10.875 294.834 10.794 295.118 10.6321C295.402 10.4702 295.608 10.2514 295.736 9.97585C295.866 9.69744 295.932 9.38352 295.932 9.03409C295.932 8.68466 295.866 8.37216 295.736 8.09659C295.608 7.82102 295.401 7.60511 295.114 7.44886C294.827 7.28977 294.446 7.21023 293.972 7.21023H292.114V15H291.057ZM298.538 15V8.45455H299.509V9.44318H299.577C299.697 9.11932 299.913 8.85653 300.225 8.65483C300.538 8.45312 300.89 8.35227 301.282 8.35227C301.356 8.35227 301.448 8.35369 301.559 8.35653C301.67 8.35937 301.754 8.36364 301.81 8.36932V9.39205C301.776 9.38352 301.698 9.37074 301.576 9.35369C301.457 9.33381 301.33 9.32386 301.197 9.32386C300.879 9.32386 300.594 9.39062 300.344 9.52415C300.097 9.65483 299.901 9.83665 299.756 10.0696C299.614 10.2997 299.543 10.5625 299.543 10.858V15H298.538ZM305.548 15.1364C304.917 15.1364 304.373 14.9972 303.915 14.7188C303.461 14.4375 303.11 14.0455 302.863 13.5426C302.619 13.0369 302.496 12.4489 302.496 11.7784C302.496 11.108 302.619 10.517 302.863 10.0057C303.11 9.49148 303.454 9.09091 303.894 8.80398C304.337 8.5142 304.854 8.36932 305.445 8.36932C305.786 8.36932 306.123 8.42614 306.455 8.53977C306.788 8.65341 307.09 8.83807 307.363 9.09375C307.636 9.34659 307.853 9.68182 308.015 10.0994C308.177 10.517 308.258 11.0312 308.258 11.642V12.0682H303.212V11.1989H307.235C307.235 10.8295 307.161 10.5 307.013 10.2102C306.869 9.92045 306.661 9.69176 306.391 9.52415C306.124 9.35653 305.809 9.27273 305.445 9.27273C305.045 9.27273 304.698 9.37216 304.406 9.57102C304.116 9.76705 303.893 10.0227 303.737 10.3381C303.58 10.6534 303.502 10.9915 303.502 11.3523V11.9318C303.502 12.4261 303.587 12.8452 303.758 13.1889C303.931 13.5298 304.171 13.7898 304.478 13.9688C304.785 14.1449 305.141 14.233 305.548 14.233C305.812 14.233 306.05 14.196 306.263 14.1222C306.479 14.0455 306.665 13.9318 306.822 13.7812C306.978 13.6278 307.099 13.4375 307.184 13.2102L308.156 13.483C308.053 13.8125 307.881 14.1023 307.64 14.3523C307.398 14.5994 307.1 14.7926 306.745 14.9318C306.39 15.0682 305.991 15.1364 305.548 15.1364ZM314.941 8.45455L312.52 15H311.498L309.077 8.45455H310.168L311.975 13.6705H312.043L313.85 8.45455H314.941ZM316.268 15V8.45455H317.274V15H316.268ZM316.779 7.36364C316.583 7.36364 316.414 7.29688 316.272 7.16335C316.133 7.02983 316.064 6.86932 316.064 6.68182C316.064 6.49432 316.133 6.33381 316.272 6.20028C316.414 6.06676 316.583 6 316.779 6C316.975 6 317.143 6.06676 317.282 6.20028C317.424 6.33381 317.495 6.49432 317.495 6.68182C317.495 6.86932 317.424 7.02983 317.282 7.16335C317.143 7.29688 316.975 7.36364 316.779 7.36364ZM321.775 15.1364C321.184 15.1364 320.665 14.9957 320.219 14.7145C319.776 14.4332 319.43 14.0398 319.18 13.5341C318.933 13.0284 318.809 12.4375 318.809 11.7614C318.809 11.0795 318.933 10.4844 319.18 9.97585C319.43 9.46733 319.776 9.07244 320.219 8.79119C320.665 8.50994 321.184 8.36932 321.775 8.36932C322.366 8.36932 322.883 8.50994 323.326 8.79119C323.772 9.07244 324.119 9.46733 324.366 9.97585C324.616 10.4844 324.741 11.0795 324.741 11.7614C324.741 12.4375 324.616 13.0284 324.366 13.5341C324.119 14.0398 323.772 14.4332 323.326 14.7145C322.883 14.9957 322.366 15.1364 321.775 15.1364ZM321.775 14.233C322.224 14.233 322.593 14.1179 322.883 13.8878C323.173 13.6577 323.387 13.3551 323.526 12.9801C323.665 12.6051 323.735 12.1989 323.735 11.7614C323.735 11.3239 323.665 10.9162 323.526 10.5384C323.387 10.1605 323.173 9.85511 322.883 9.62216C322.593 9.3892 322.224 9.27273 321.775 9.27273C321.326 9.27273 320.957 9.3892 320.667 9.62216C320.377 9.85511 320.163 10.1605 320.023 10.5384C319.884 10.9162 319.815 11.3239 319.815 11.7614C319.815 12.1989 319.884 12.6051 320.023 12.9801C320.163 13.3551 320.377 13.6577 320.667 13.8878C320.957 14.1179 321.326 14.233 321.775 14.233ZM330.401 12.3239V8.45455H331.407V15H330.401V13.892H330.333C330.179 14.2244 329.941 14.5071 329.617 14.7401C329.293 14.9702 328.884 15.0852 328.39 15.0852C327.98 15.0852 327.617 14.9957 327.299 14.8168C326.98 14.6349 326.73 14.3622 326.549 13.9986C326.367 13.6321 326.276 13.1705 326.276 12.6136V8.45455H327.282V12.5455C327.282 13.0227 327.415 13.4034 327.682 13.6875C327.952 13.9716 328.296 14.1136 328.713 14.1136C328.963 14.1136 329.218 14.0497 329.476 13.9219C329.738 13.794 329.956 13.598 330.132 13.3338C330.311 13.0696 330.401 12.733 330.401 12.3239ZM337.885 9.92045L336.982 10.1761C336.925 10.0256 336.841 9.87926 336.73 9.73722C336.622 9.59233 336.474 9.47301 336.287 9.37926C336.099 9.28551 335.859 9.23864 335.567 9.23864C335.166 9.23864 334.832 9.33097 334.565 9.51562C334.301 9.69744 334.169 9.92898 334.169 10.2102C334.169 10.4602 334.26 10.6577 334.442 10.8026C334.624 10.9474 334.908 11.0682 335.294 11.1648L336.266 11.4034C336.851 11.5455 337.287 11.7628 337.574 12.0554C337.861 12.3452 338.004 12.7187 338.004 13.1761C338.004 13.5511 337.896 13.8864 337.68 14.1818C337.467 14.4773 337.169 14.7102 336.786 14.8807C336.402 15.0511 335.956 15.1364 335.447 15.1364C334.78 15.1364 334.227 14.9915 333.79 14.7017C333.352 14.4119 333.075 13.9886 332.959 13.4318L333.913 13.1932C334.004 13.5455 334.176 13.8097 334.429 13.9858C334.685 14.1619 335.018 14.25 335.43 14.25C335.899 14.25 336.271 14.1506 336.547 13.9517C336.825 13.75 336.964 13.5085 336.964 13.2273C336.964 13 336.885 12.8097 336.726 12.6562C336.567 12.5 336.322 12.3835 335.993 12.3068L334.902 12.0511C334.303 11.9091 333.862 11.6889 333.581 11.3906C333.303 11.0895 333.163 10.7131 333.163 10.2614C333.163 9.89205 333.267 9.56534 333.474 9.28125C333.685 8.99716 333.97 8.77415 334.331 8.61222C334.695 8.45028 335.107 8.36932 335.567 8.36932C336.214 8.36932 336.723 8.51136 337.092 8.79545C337.464 9.07955 337.729 9.45455 337.885 9.92045ZM344.615 15L342.228 6.27273H343.302L345.126 13.3807H345.211L347.069 6.27273H348.262L350.12 13.3807H350.206L352.029 6.27273H353.103L350.717 15H349.626L347.7 8.04545H347.632L345.706 15H344.615ZM356.419 15.1364C355.788 15.1364 355.244 14.9972 354.787 14.7188C354.332 14.4375 353.981 14.0455 353.734 13.5426C353.49 13.0369 353.368 12.4489 353.368 11.7784C353.368 11.108 353.49 10.517 353.734 10.0057C353.981 9.49148 354.325 9.09091 354.765 8.80398C355.208 8.5142 355.725 8.36932 356.316 8.36932C356.657 8.36932 356.994 8.42614 357.326 8.53977C357.659 8.65341 357.961 8.83807 358.234 9.09375C358.507 9.34659 358.724 9.68182 358.886 10.0994C359.048 10.517 359.129 11.0312 359.129 11.642V12.0682H354.083V11.1989H358.106C358.106 10.8295 358.032 10.5 357.885 10.2102C357.74 9.92045 357.532 9.69176 357.262 9.52415C356.995 9.35653 356.68 9.27273 356.316 9.27273C355.916 9.27273 355.569 9.37216 355.277 9.57102C354.987 9.76705 354.764 10.0227 354.608 10.3381C354.451 10.6534 354.373 10.9915 354.373 11.3523V11.9318C354.373 12.4261 354.458 12.8452 354.629 13.1889C354.802 13.5298 355.042 13.7898 355.349 13.9688C355.656 14.1449 356.012 14.233 356.419 14.233C356.683 14.233 356.922 14.196 357.135 14.1222C357.35 14.0455 357.537 13.9318 357.693 13.7812C357.849 13.6278 357.97 13.4375 358.055 13.2102L359.027 13.483C358.924 13.8125 358.752 14.1023 358.511 14.3523C358.27 14.5994 357.971 14.7926 357.616 14.9318C357.261 15.0682 356.862 15.1364 356.419 15.1364ZM363.403 15.1364C362.772 15.1364 362.228 14.9972 361.771 14.7188C361.316 14.4375 360.966 14.0455 360.718 13.5426C360.474 13.0369 360.352 12.4489 360.352 11.7784C360.352 11.108 360.474 10.517 360.718 10.0057C360.966 9.49148 361.309 9.09091 361.75 8.80398C362.193 8.5142 362.71 8.36932 363.301 8.36932C363.642 8.36932 363.978 8.42614 364.311 8.53977C364.643 8.65341 364.946 8.83807 365.218 9.09375C365.491 9.34659 365.708 9.68182 365.87 10.0994C366.032 10.517 366.113 11.0312 366.113 11.642V12.0682H361.068V11.1989H365.091C365.091 10.8295 365.017 10.5 364.869 10.2102C364.724 9.92045 364.517 9.69176 364.247 9.52415C363.98 9.35653 363.664 9.27273 363.301 9.27273C362.9 9.27273 362.554 9.37216 362.261 9.57102C361.971 9.76705 361.748 10.0227 361.592 10.3381C361.436 10.6534 361.358 10.9915 361.358 11.3523V11.9318C361.358 12.4261 361.443 12.8452 361.613 13.1889C361.787 13.5298 362.027 13.7898 362.333 13.9688C362.64 14.1449 362.997 14.233 363.403 14.233C363.667 14.233 363.906 14.196 364.119 14.1222C364.335 14.0455 364.521 13.9318 364.677 13.7812C364.833 13.6278 364.954 13.4375 365.039 13.2102L366.011 13.483C365.909 13.8125 365.737 14.1023 365.495 14.3523C365.254 14.5994 364.956 14.7926 364.6 14.9318C364.245 15.0682 363.846 15.1364 363.403 15.1364ZM368.581 12.6136L368.564 11.3693H368.768L371.632 8.45455H372.876L369.825 11.5398H369.74L368.581 12.6136ZM367.643 15V6.27273H368.649V15H367.643ZM371.802 15L369.245 11.7614L369.961 11.0625L373.081 15H371.802ZM383.588 16.0909V5.18182H384.287V16.0909H383.588ZM385.604 8.67188C385.564 8.29972 385.396 8.00994 385.101 7.80256C384.808 7.59517 384.428 7.49148 383.959 7.49148C383.629 7.49148 383.347 7.54119 383.111 7.64062C382.875 7.74006 382.695 7.875 382.57 8.04545C382.445 8.21591 382.381 8.41051 382.378 8.62926C382.378 8.81108 382.419 8.96875 382.501 9.10227C382.587 9.2358 382.702 9.34943 382.847 9.44318C382.991 9.53409 383.152 9.6108 383.328 9.6733C383.504 9.7358 383.682 9.78835 383.861 9.83097L384.679 10.0355C385.009 10.1122 385.325 10.2159 385.629 10.3466C385.936 10.4773 386.21 10.642 386.452 10.8409C386.696 11.0398 386.889 11.2798 387.031 11.5611C387.173 11.8423 387.244 12.1719 387.244 12.5497C387.244 13.0611 387.114 13.5114 386.852 13.9006C386.591 14.2869 386.213 14.5895 385.719 14.8082C385.227 15.0241 384.632 15.1321 383.933 15.1321C383.254 15.1321 382.665 15.027 382.165 14.8168C381.668 14.6065 381.278 14.2997 380.997 13.8963C380.719 13.4929 380.568 13.0014 380.545 12.4219H382.101C382.124 12.7259 382.217 12.9787 382.382 13.1804C382.547 13.3821 382.761 13.5327 383.026 13.6321C383.293 13.7315 383.591 13.7812 383.92 13.7812C384.264 13.7812 384.565 13.7301 384.824 13.6278C385.085 13.5227 385.29 13.3778 385.438 13.1932C385.585 13.0057 385.661 12.7869 385.663 12.5369C385.661 12.3097 385.594 12.1222 385.463 11.9744C385.332 11.8239 385.149 11.6989 384.913 11.5994C384.68 11.4972 384.408 11.4062 384.095 11.3267L383.102 11.071C382.384 10.8864 381.815 10.6065 381.398 10.2315C380.983 9.85369 380.776 9.35227 380.776 8.72727C380.776 8.21307 380.915 7.76278 381.193 7.37642C381.474 6.99006 381.857 6.69034 382.339 6.47727C382.822 6.26136 383.369 6.15341 383.98 6.15341C384.599 6.15341 385.142 6.26136 385.608 6.47727C386.077 6.69034 386.445 6.98722 386.712 7.3679C386.979 7.74574 387.116 8.1804 387.125 8.67188H385.604ZM391.765 15.1193C391.347 15.1165 390.939 15.044 390.542 14.902C390.144 14.7571 389.786 14.5227 389.468 14.1989C389.15 13.8722 388.897 13.4389 388.709 12.8991C388.522 12.3565 388.429 11.6847 388.432 10.8835C388.432 10.1364 388.512 9.47017 388.671 8.88494C388.83 8.29972 389.059 7.8054 389.357 7.40199C389.655 6.99574 390.015 6.68608 390.435 6.47301C390.858 6.25994 391.331 6.15341 391.854 6.15341C392.402 6.15341 392.888 6.26136 393.311 6.47727C393.738 6.69318 394.081 6.98864 394.343 7.36364C394.604 7.7358 394.766 8.15625 394.828 8.625H393.273C393.194 8.28977 393.03 8.02273 392.783 7.82386C392.539 7.62216 392.229 7.52131 391.854 7.52131C391.249 7.52131 390.783 7.78409 390.456 8.30966C390.132 8.83523 389.969 9.55682 389.966 10.4744H390.026C390.165 10.2244 390.346 10.0099 390.567 9.83097C390.789 9.65199 391.039 9.5142 391.317 9.41761C391.598 9.31818 391.895 9.26847 392.208 9.26847C392.719 9.26847 393.178 9.39062 393.584 9.63494C393.993 9.87926 394.317 10.2159 394.556 10.6449C394.794 11.071 394.912 11.5597 394.909 12.1108C394.912 12.6847 394.782 13.2003 394.517 13.6577C394.253 14.1122 393.885 14.4702 393.414 14.7315C392.942 14.9929 392.392 15.1222 391.765 15.1193ZM391.756 13.8409C392.066 13.8409 392.343 13.7656 392.587 13.6151C392.831 13.4645 393.025 13.2614 393.167 13.0057C393.309 12.75 393.378 12.4631 393.375 12.1449C393.378 11.8324 393.31 11.5497 393.171 11.2969C393.034 11.044 392.846 10.8437 392.604 10.696C392.363 10.5483 392.087 10.4744 391.777 10.4744C391.547 10.4744 391.333 10.5185 391.134 10.6065C390.935 10.6946 390.762 10.8168 390.614 10.973C390.466 11.1264 390.35 11.3054 390.265 11.5099C390.182 11.7116 390.14 11.9276 390.137 12.1577C390.14 12.4616 390.211 12.7415 390.35 12.9972C390.489 13.2528 390.681 13.4574 390.925 13.6108C391.169 13.7642 391.446 13.8409 391.756 13.8409ZM399.452 15.1193C398.819 15.1193 398.256 15.0128 397.765 14.7997C397.276 14.5866 396.892 14.2955 396.614 13.9261C396.338 13.554 396.202 13.1321 396.205 12.6605C396.202 12.294 396.282 11.9574 396.444 11.6506C396.605 11.3438 396.824 11.0881 397.1 10.8835C397.378 10.6761 397.688 10.544 398.029 10.4872V10.4276C397.58 10.3281 397.216 10.0994 396.938 9.74148C396.662 9.38068 396.526 8.96449 396.529 8.4929C396.526 8.04403 396.651 7.64347 396.904 7.29119C397.157 6.93892 397.503 6.66193 397.944 6.46023C398.384 6.25568 398.887 6.15341 399.452 6.15341C400.012 6.15341 400.51 6.25568 400.948 6.46023C401.388 6.66193 401.735 6.93892 401.988 7.29119C402.243 7.64347 402.371 8.04403 402.371 8.4929C402.371 8.96449 402.23 9.38068 401.949 9.74148C401.671 10.0994 401.311 10.3281 400.871 10.4276V10.4872C401.212 10.544 401.519 10.6761 401.792 10.8835C402.067 11.0881 402.286 11.3438 402.448 11.6506C402.613 11.9574 402.695 12.294 402.695 12.6605C402.695 13.1321 402.556 13.554 402.277 13.9261C401.999 14.2955 401.615 14.5866 401.127 14.7997C400.641 15.0128 400.083 15.1193 399.452 15.1193ZM399.452 13.9006C399.779 13.9006 400.063 13.8452 400.304 13.7344C400.546 13.6207 400.733 13.4616 400.867 13.2571C401 13.0526 401.069 12.8168 401.071 12.5497C401.069 12.2713 400.996 12.0256 400.854 11.8125C400.715 11.5966 400.523 11.4276 400.279 11.3054C400.037 11.1832 399.762 11.1222 399.452 11.1222C399.14 11.1222 398.861 11.1832 398.617 11.3054C398.373 11.4276 398.179 11.5966 398.037 11.8125C397.898 12.0256 397.83 12.2713 397.833 12.5497C397.83 12.8168 397.895 13.0526 398.029 13.2571C398.162 13.4588 398.35 13.6165 398.591 13.7301C398.836 13.8437 399.123 13.9006 399.452 13.9006ZM399.452 9.92472C399.719 9.92472 399.955 9.87074 400.159 9.76278C400.367 9.65483 400.53 9.50426 400.65 9.31108C400.769 9.1179 400.83 8.89489 400.833 8.64205C400.83 8.39205 400.77 8.1733 400.654 7.9858C400.537 7.79545 400.375 7.64915 400.168 7.54688C399.961 7.44176 399.722 7.3892 399.452 7.3892C399.176 7.3892 398.934 7.44176 398.723 7.54688C398.516 7.64915 398.354 7.79545 398.238 7.9858C398.124 8.1733 398.069 8.39205 398.071 8.64205C398.069 8.89489 398.125 9.1179 398.242 9.31108C398.361 9.50142 398.525 9.65199 398.732 9.76278C398.942 9.87074 399.182 9.92472 399.452 9.92472ZM405.666 13.8068L405.611 14.2756C405.571 14.6335 405.5 14.9972 405.398 15.3665C405.298 15.7386 405.193 16.081 405.082 16.3935C404.972 16.706 404.882 16.9517 404.814 17.1307H403.774C403.814 16.9574 403.868 16.7216 403.936 16.4233C404.007 16.125 404.075 15.7898 404.141 15.4176C404.206 15.0455 404.25 14.6676 404.273 14.2841L404.303 13.8068H405.666ZM407.415 15L411.127 7.65341V7.59375H406.819V6.27273H412.763V7.62358L409.056 15H407.415ZM417.147 15.1193C416.73 15.1165 416.322 15.044 415.924 14.902C415.527 14.7571 415.169 14.5227 414.85 14.1989C414.532 13.8722 414.279 13.4389 414.092 12.8991C413.904 12.3565 413.812 11.6847 413.815 10.8835C413.815 10.1364 413.895 9.47017 414.054 8.88494C414.213 8.29972 414.441 7.8054 414.74 7.40199C415.038 6.99574 415.397 6.68608 415.818 6.47301C416.241 6.25994 416.714 6.15341 417.237 6.15341C417.785 6.15341 418.271 6.26136 418.694 6.47727C419.12 6.69318 419.464 6.98864 419.725 7.36364C419.987 7.7358 420.149 8.15625 420.211 8.625H418.656C418.576 8.28977 418.413 8.02273 418.166 7.82386C417.922 7.62216 417.612 7.52131 417.237 7.52131C416.632 7.52131 416.166 7.78409 415.839 8.30966C415.515 8.83523 415.352 9.55682 415.349 10.4744H415.409C415.548 10.2244 415.728 10.0099 415.95 9.83097C416.172 9.65199 416.422 9.5142 416.7 9.41761C416.981 9.31818 417.278 9.26847 417.591 9.26847C418.102 9.26847 418.561 9.39062 418.967 9.63494C419.376 9.87926 419.7 10.2159 419.939 10.6449C420.177 11.071 420.295 11.5597 420.292 12.1108C420.295 12.6847 420.164 13.2003 419.9 13.6577C419.636 14.1122 419.268 14.4702 418.797 14.7315C418.325 14.9929 417.775 15.1222 417.147 15.1193ZM417.139 13.8409C417.449 13.8409 417.725 13.7656 417.97 13.6151C418.214 13.4645 418.407 13.2614 418.549 13.0057C418.691 12.75 418.761 12.4631 418.758 12.1449C418.761 11.8324 418.693 11.5497 418.554 11.2969C418.417 11.044 418.228 10.8437 417.987 10.696C417.745 10.5483 417.47 10.4744 417.16 10.4744C416.93 10.4744 416.716 10.5185 416.517 10.6065C416.318 10.6946 416.145 10.8168 415.997 10.973C415.849 11.1264 415.733 11.3054 415.647 11.5099C415.565 11.7116 415.522 11.9276 415.52 12.1577C415.522 12.4616 415.593 12.7415 415.733 12.9972C415.872 13.2528 416.064 13.4574 416.308 13.6108C416.552 13.7642 416.829 13.8409 417.139 13.8409ZM424.835 15.1193C424.201 15.1193 423.639 15.0128 423.147 14.7997C422.659 14.5866 422.275 14.2955 421.997 13.9261C421.721 13.554 421.585 13.1321 421.588 12.6605C421.585 12.294 421.664 11.9574 421.826 11.6506C421.988 11.3438 422.207 11.0881 422.483 10.8835C422.761 10.6761 423.071 10.544 423.412 10.4872V10.4276C422.963 10.3281 422.599 10.0994 422.321 9.74148C422.045 9.38068 421.909 8.96449 421.912 8.4929C421.909 8.04403 422.034 7.64347 422.287 7.29119C422.539 6.93892 422.886 6.66193 423.326 6.46023C423.767 6.25568 424.27 6.15341 424.835 6.15341C425.395 6.15341 425.893 6.25568 426.331 6.46023C426.771 6.66193 427.118 6.93892 427.37 7.29119C427.626 7.64347 427.754 8.04403 427.754 8.4929C427.754 8.96449 427.613 9.38068 427.332 9.74148C427.054 10.0994 426.694 10.3281 426.254 10.4276V10.4872C426.595 10.544 426.902 10.6761 427.174 10.8835C427.45 11.0881 427.669 11.3438 427.831 11.6506C427.995 11.9574 428.078 12.294 428.078 12.6605C428.078 13.1321 427.939 13.554 427.66 13.9261C427.382 14.2955 426.998 14.5866 426.51 14.7997C426.024 15.0128 425.466 15.1193 424.835 15.1193ZM424.835 13.9006C425.162 13.9006 425.446 13.8452 425.687 13.7344C425.929 13.6207 426.116 13.4616 426.25 13.2571C426.383 13.0526 426.451 12.8168 426.454 12.5497C426.451 12.2713 426.379 12.0256 426.237 11.8125C426.098 11.5966 425.906 11.4276 425.662 11.3054C425.42 11.1832 425.145 11.1222 424.835 11.1222C424.522 11.1222 424.244 11.1832 424 11.3054C423.755 11.4276 423.562 11.5966 423.42 11.8125C423.281 12.0256 423.213 12.2713 423.216 12.5497C423.213 12.8168 423.278 13.0526 423.412 13.2571C423.545 13.4588 423.733 13.6165 423.974 13.7301C424.218 13.8437 424.505 13.9006 424.835 13.9006ZM424.835 9.92472C425.102 9.92472 425.338 9.87074 425.542 9.76278C425.75 9.65483 425.913 9.50426 426.032 9.31108C426.152 9.1179 426.213 8.89489 426.216 8.64205C426.213 8.39205 426.153 8.1733 426.037 7.9858C425.92 7.79545 425.758 7.64915 425.551 7.54688C425.343 7.44176 425.105 7.3892 424.835 7.3892C424.559 7.3892 424.316 7.44176 424.106 7.54688C423.899 7.64915 423.737 7.79545 423.62 7.9858C423.507 8.1733 423.451 8.39205 423.454 8.64205C423.451 8.89489 423.508 9.1179 423.625 9.31108C423.744 9.50142 423.907 9.65199 424.115 9.76278C424.325 9.87074 424.565 9.92472 424.835 9.92472Z" fill="#1C1C1C"/>
<path d="M1.05611 48.8182H2.12997C2.16122 49.1136 2.26207 49.3636 2.43253 49.5682C2.60582 49.7699 2.83026 49.9233 3.10582 50.0284C3.38139 50.1307 3.68679 50.1818 4.02202 50.1818C4.38565 50.1818 4.71236 50.1207 5.00213 49.9986C5.2919 49.8764 5.52202 49.6946 5.69247 49.4531C5.86293 49.2088 5.94815 48.9062 5.94815 48.5455C5.94815 48.2301 5.87429 47.9375 5.72656 47.6676C5.57884 47.3949 5.34162 47.1747 5.01491 47.0071C4.68821 46.8395 4.25497 46.7557 3.7152 46.7557H3.01634V45.9034L5.19815 43.2784V43.2102H1.48224V42.2727H6.64702V43.0398L4.31179 45.8693V45.9375C4.68679 45.9545 5.03622 46.0312 5.36009 46.1676C5.68679 46.304 5.97088 46.4886 6.21236 46.7216C6.45668 46.9545 6.64702 47.2259 6.78338 47.5355C6.91974 47.8452 6.98793 48.1818 6.98793 48.5455C6.98793 49.0426 6.86009 49.4858 6.6044 49.875C6.35156 50.2614 6.00071 50.5653 5.55185 50.7869C5.10582 51.0085 4.5902 51.1193 4.00497 51.1193C3.48793 51.1193 3.01207 51.0284 2.57741 50.8466C2.14276 50.6648 1.78906 50.402 1.51634 50.0582C1.24361 49.7145 1.0902 49.3011 1.05611 48.8182ZM11.5742 51.1193C10.9322 51.1193 10.3853 50.9446 9.93359 50.5952C9.48189 50.2429 9.13672 49.733 8.89808 49.0653C8.65945 48.3949 8.54013 47.5852 8.54013 46.6364C8.54013 45.6932 8.65945 44.8878 8.89808 44.2202C9.13956 43.5497 9.48615 43.0384 9.93786 42.6861C10.3924 42.331 10.9379 42.1534 11.5742 42.1534C12.2106 42.1534 12.7546 42.331 13.2063 42.6861C13.6609 43.0384 14.0075 43.5497 14.2461 44.2202C14.4876 44.8878 14.6083 45.6932 14.6083 46.6364C14.6083 47.5852 14.489 48.3949 14.2504 49.0653C14.0117 49.733 13.6665 50.2429 13.2148 50.5952C12.7631 50.9446 12.2163 51.1193 11.5742 51.1193ZM11.5742 50.1818C12.2106 50.1818 12.7049 49.875 13.0572 49.2614C13.4094 48.6477 13.5856 47.7727 13.5856 46.6364C13.5856 45.8807 13.5046 45.2372 13.3427 44.706C13.1836 44.1747 12.9535 43.7699 12.6523 43.4915C12.354 43.2131 11.9947 43.0739 11.5742 43.0739C10.9435 43.0739 10.4506 43.3849 10.0955 44.0071C9.74041 44.6264 9.56286 45.5028 9.56286 46.6364C9.56286 47.392 9.6424 48.0341 9.80149 48.5625C9.96058 49.0909 10.1893 49.4929 10.4876 49.7685C10.7887 50.044 11.1509 50.1818 11.5742 50.1818ZM16.381 42.2727H17.6424L20.6083 49.517H20.7106L23.6765 42.2727H24.9379V51H23.9492V44.3693H23.864L21.1367 51H20.1822L17.4549 44.3693H17.3697V51H16.381V42.2727Z" fill="#1C1C1C" fill-opacity="0.4"/>
<path d="M1.462 109V108.233L4.34268 105.08C4.68075 104.71 4.95916 104.389 5.17791 104.116C5.39666 103.841 5.55859 103.582 5.66371 103.341C5.77166 103.097 5.82564 102.841 5.82564 102.574C5.82564 102.267 5.75178 102.001 5.60405 101.777C5.45916 101.553 5.2603 101.379 5.00746 101.257C4.75462 101.135 4.47053 101.074 4.15518 101.074C3.81996 101.074 3.52734 101.143 3.27734 101.283C3.03018 101.419 2.83842 101.611 2.70206 101.858C2.56854 102.105 2.50178 102.395 2.50178 102.727H1.49609C1.49609 102.216 1.61399 101.767 1.84979 101.381C2.08558 100.994 2.40661 100.693 2.81286 100.477C3.22195 100.261 3.68075 100.153 4.18928 100.153C4.70064 100.153 5.15376 100.261 5.54865 100.477C5.94354 100.693 6.2532 100.984 6.47763 101.351C6.70206 101.717 6.81428 102.125 6.81428 102.574C6.81428 102.895 6.75604 103.209 6.63956 103.516C6.52592 103.82 6.32706 104.159 6.04297 104.534C5.76172 104.906 5.37109 105.361 4.87109 105.898L2.91087 107.994V108.062H6.96768V109H1.462ZM11.5742 109.119C10.9322 109.119 10.3853 108.945 9.93359 108.595C9.48189 108.243 9.13672 107.733 8.89808 107.065C8.65945 106.395 8.54013 105.585 8.54013 104.636C8.54013 103.693 8.65945 102.888 8.89808 102.22C9.13956 101.55 9.48615 101.038 9.93786 100.686C10.3924 100.331 10.9379 100.153 11.5742 100.153C12.2106 100.153 12.7546 100.331 13.2063 100.686C13.6609 101.038 14.0075 101.55 14.2461 102.22C14.4876 102.888 14.6083 103.693 14.6083 104.636C14.6083 105.585 14.489 106.395 14.2504 107.065C14.0117 107.733 13.6665 108.243 13.2148 108.595C12.7631 108.945 12.2163 109.119 11.5742 109.119ZM11.5742 108.182C12.2106 108.182 12.7049 107.875 13.0572 107.261C13.4094 106.648 13.5856 105.773 13.5856 104.636C13.5856 103.881 13.5046 103.237 13.3427 102.706C13.1836 102.175 12.9535 101.77 12.6523 101.491C12.354 101.213 11.9947 101.074 11.5742 101.074C10.9435 101.074 10.4506 101.385 10.0955 102.007C9.74041 102.626 9.56286 103.503 9.56286 104.636C9.56286 105.392 9.6424 106.034 9.80149 106.562C9.96058 107.091 10.1893 107.493 10.4876 107.768C10.7887 108.044 11.1509 108.182 11.5742 108.182ZM16.381 100.273H17.6424L20.6083 107.517H20.7106L23.6765 100.273H24.9379V109H23.9492V102.369H23.864L21.1367 109H20.1822L17.4549 102.369H17.3697V109H16.381V100.273Z" fill="#1C1C1C" fill-opacity="0.4"/>
<path d="M6.22621 158.273V167H5.16939V159.807H5.10121C5.06143 159.886 4.95916 159.977 4.79439 160.08C4.62962 160.179 4.41655 160.267 4.15518 160.344C3.89382 160.418 3.59553 160.455 3.2603 160.455V159.568C3.59837 159.568 3.89098 159.507 4.13814 159.385C4.3853 159.263 4.59126 159.119 4.75604 158.955C4.92365 158.79 5.05007 158.641 5.1353 158.507C5.22337 158.374 5.2745 158.295 5.28871 158.273H6.22621ZM11.5742 167.119C10.9322 167.119 10.3853 166.945 9.93359 166.595C9.48189 166.243 9.13672 165.733 8.89808 165.065C8.65945 164.395 8.54013 163.585 8.54013 162.636C8.54013 161.693 8.65945 160.888 8.89808 160.22C9.13956 159.55 9.48615 159.038 9.93786 158.686C10.3924 158.331 10.9379 158.153 11.5742 158.153C12.2106 158.153 12.7546 158.331 13.2063 158.686C13.6609 159.038 14.0075 159.55 14.2461 160.22C14.4876 160.888 14.6083 161.693 14.6083 162.636C14.6083 163.585 14.489 164.395 14.2504 165.065C14.0117 165.733 13.6665 166.243 13.2148 166.595C12.7631 166.945 12.2163 167.119 11.5742 167.119ZM11.5742 166.182C12.2106 166.182 12.7049 165.875 13.0572 165.261C13.4094 164.648 13.5856 163.773 13.5856 162.636C13.5856 161.881 13.5046 161.237 13.3427 160.706C13.1836 160.175 12.9535 159.77 12.6523 159.491C12.354 159.213 11.9947 159.074 11.5742 159.074C10.9435 159.074 10.4506 159.385 10.0955 160.007C9.74041 160.626 9.56286 161.503 9.56286 162.636C9.56286 163.392 9.6424 164.034 9.80149 164.562C9.96058 165.091 10.1893 165.493 10.4876 165.768C10.7887 166.044 11.1509 166.182 11.5742 166.182ZM16.381 158.273H17.6424L20.6083 165.517H20.7106L23.6765 158.273H24.9379V167H23.9492V160.369H23.864L21.1367 167H20.1822L17.4549 160.369H17.3697V167H16.381V158.273Z" fill="#1C1C1C" fill-opacity="0.4"/>
<path d="M22.25 225.119C21.608 225.119 21.0611 224.945 20.6094 224.595C20.1577 224.243 19.8125 223.733 19.5739 223.065C19.3352 222.395 19.2159 221.585 19.2159 220.636C19.2159 219.693 19.3352 218.888 19.5739 218.22C19.8153 217.55 20.1619 217.038 20.6136 216.686C21.0682 216.331 21.6136 216.153 22.25 216.153C22.8864 216.153 23.4304 216.331 23.8821 216.686C24.3366 217.038 24.6832 217.55 24.9219 218.22C25.1634 218.888 25.2841 219.693 25.2841 220.636C25.2841 221.585 25.1648 222.395 24.9261 223.065C24.6875 223.733 24.3423 224.243 23.8906 224.595C23.4389 224.945 22.892 225.119 22.25 225.119ZM22.25 224.182C22.8864 224.182 23.3807 223.875 23.733 223.261C24.0852 222.648 24.2614 221.773 24.2614 220.636C24.2614 219.881 24.1804 219.237 24.0185 218.706C23.8594 218.175 23.6293 217.77 23.3281 217.491C23.0298 217.213 22.6705 217.074 22.25 217.074C21.6193 217.074 21.1264 217.385 20.7713 218.007C20.4162 218.626 20.2386 219.503 20.2386 220.636C20.2386 221.392 20.3182 222.034 20.4773 222.562C20.6364 223.091 20.8651 223.493 21.1634 223.768C21.4645 224.044 21.8267 224.182 22.25 224.182Z" fill="#1C1C1C" fill-opacity="0.4"/>
<line x1="42.5" y1="53.5" x2="613.5" y2="53.5" stroke="#1C1C1C" stroke-opacity="0.05" stroke-linecap="round"/>
<line x1="42.5" y1="116.167" x2="613.5" y2="116.167" stroke="#1C1C1C" stroke-opacity="0.05" stroke-linecap="round"/>
<line x1="42.5" y1="178.833" x2="613.5" y2="178.833" stroke="#1C1C1C" stroke-opacity="0.05" stroke-linecap="round"/>
<line x1="42.5" y1="241.5" x2="613.5" y2="241.5" stroke="#1C1C1C" stroke-opacity="0.2" stroke-linecap="round"/>
<path d="M83.5703 256.273H84.6271V262.511C84.6271 263.068 84.5248 263.541 84.3203 263.93C84.1157 264.32 83.8274 264.615 83.4552 264.817C83.083 265.018 82.6441 265.119 82.1384 265.119C81.6612 265.119 81.2364 265.033 80.8643 264.859C80.4921 264.683 80.1995 264.433 79.9864 264.109C79.7734 263.786 79.6668 263.401 79.6668 262.955H80.7066C80.7066 263.202 80.7677 263.418 80.8899 263.602C81.0149 263.784 81.1853 263.926 81.4012 264.028C81.6171 264.131 81.8629 264.182 82.1384 264.182C82.4424 264.182 82.7009 264.118 82.914 263.99C83.1271 263.862 83.289 263.675 83.3998 263.428C83.5134 263.178 83.5703 262.872 83.5703 262.511V256.273ZM89.0802 265.136C88.5347 265.136 88.0532 264.999 87.6356 264.723C87.218 264.445 86.8913 264.053 86.6555 263.547C86.4197 263.038 86.3018 262.438 86.3018 261.744C86.3018 261.057 86.4197 260.46 86.6555 259.955C86.8913 259.449 87.2194 259.058 87.6399 258.783C88.0603 258.507 88.5461 258.369 89.0972 258.369C89.5234 258.369 89.86 258.44 90.1072 258.582C90.3572 258.722 90.5475 258.881 90.6782 259.06C90.8117 259.236 90.9154 259.381 90.9893 259.494H91.0745V258.455H92.0802V265H91.1086V263.994H90.9893C90.9154 264.114 90.8103 264.264 90.6739 264.446C90.5376 264.625 90.343 264.786 90.0901 264.928C89.8373 265.067 89.5007 265.136 89.0802 265.136ZM89.2166 264.233C89.62 264.233 89.9609 264.128 90.2393 263.918C90.5177 263.705 90.7293 263.411 90.8742 263.036C91.0191 262.658 91.0916 262.222 91.0916 261.727C91.0916 261.239 91.0205 260.811 90.8785 260.445C90.7364 260.075 90.5262 259.788 90.2478 259.584C89.9694 259.376 89.6257 259.273 89.2166 259.273C88.7904 259.273 88.4353 259.382 88.1512 259.601C87.87 259.817 87.6583 260.111 87.5163 260.483C87.3771 260.852 87.3075 261.267 87.3075 261.727C87.3075 262.193 87.3785 262.616 87.5205 262.997C87.6654 263.375 87.8785 263.676 88.1597 263.901C88.4438 264.122 88.7961 264.233 89.2166 264.233ZM95.0674 261.062V265H94.0617V258.455H95.0333V259.477H95.1186C95.272 259.145 95.5049 258.878 95.8174 258.676C96.1299 258.472 96.5333 258.369 97.0276 258.369C97.4708 258.369 97.8586 258.46 98.191 258.642C98.5234 258.821 98.7819 259.094 98.9666 259.46C99.1512 259.824 99.2436 260.284 99.2436 260.841V265H98.2379V260.909C98.2379 260.395 98.1043 259.994 97.8373 259.707C97.5703 259.418 97.2038 259.273 96.7379 259.273C96.4168 259.273 96.1299 259.342 95.8771 259.482C95.6271 259.621 95.4296 259.824 95.2847 260.091C95.1399 260.358 95.0674 260.682 95.0674 261.062Z" fill="#1C1C1C" fill-opacity="0.4"/>
<path d="M175.557 265V256.273H180.79V257.21H176.614V260.159H180.398V261.097H176.614V265H175.557ZM184.727 265.136C184.097 265.136 183.553 264.997 183.095 264.719C182.641 264.438 182.29 264.045 182.043 263.543C181.798 263.037 181.676 262.449 181.676 261.778C181.676 261.108 181.798 260.517 182.043 260.006C182.29 259.491 182.634 259.091 183.074 258.804C183.517 258.514 184.034 258.369 184.625 258.369C184.966 258.369 185.303 258.426 185.635 258.54C185.967 258.653 186.27 258.838 186.543 259.094C186.815 259.347 187.033 259.682 187.195 260.099C187.357 260.517 187.438 261.031 187.438 261.642V262.068H182.392V261.199H186.415C186.415 260.83 186.341 260.5 186.193 260.21C186.048 259.92 185.841 259.692 185.571 259.524C185.304 259.357 184.989 259.273 184.625 259.273C184.224 259.273 183.878 259.372 183.585 259.571C183.295 259.767 183.072 260.023 182.916 260.338C182.76 260.653 182.682 260.991 182.682 261.352V261.932C182.682 262.426 182.767 262.845 182.938 263.189C183.111 263.53 183.351 263.79 183.658 263.969C183.965 264.145 184.321 264.233 184.727 264.233C184.992 264.233 185.23 264.196 185.443 264.122C185.659 264.045 185.845 263.932 186.001 263.781C186.158 263.628 186.278 263.437 186.364 263.21L187.335 263.483C187.233 263.812 187.061 264.102 186.82 264.352C186.578 264.599 186.28 264.793 185.925 264.932C185.57 265.068 185.17 265.136 184.727 265.136ZM189.104 265V256.273H190.109V259.494H190.195C190.269 259.381 190.371 259.236 190.501 259.06C190.635 258.881 190.825 258.722 191.072 258.582C191.322 258.44 191.661 258.369 192.087 258.369C192.638 258.369 193.124 258.507 193.544 258.783C193.965 259.058 194.293 259.449 194.528 259.955C194.764 260.46 194.882 261.057 194.882 261.744C194.882 262.438 194.764 263.038 194.528 263.547C194.293 264.053 193.966 264.445 193.548 264.723C193.131 264.999 192.649 265.136 192.104 265.136C191.683 265.136 191.347 265.067 191.094 264.928C190.841 264.786 190.646 264.625 190.51 264.446C190.374 264.264 190.269 264.114 190.195 263.994H190.075V265H189.104ZM190.092 261.727C190.092 262.222 190.165 262.658 190.31 263.036C190.455 263.411 190.666 263.705 190.945 263.918C191.223 264.128 191.564 264.233 191.967 264.233C192.388 264.233 192.739 264.122 193.02 263.901C193.304 263.676 193.517 263.375 193.659 262.997C193.804 262.616 193.876 262.193 193.876 261.727C193.876 261.267 193.805 260.852 193.663 260.483C193.524 260.111 193.313 259.817 193.028 259.601C192.747 259.382 192.394 259.273 191.967 259.273C191.558 259.273 191.215 259.376 190.936 259.584C190.658 259.788 190.447 260.075 190.305 260.445C190.163 260.811 190.092 261.239 190.092 261.727Z" fill="#1C1C1C" fill-opacity="0.4"/>
<path d="M270.093 256.273H271.355L274.321 263.517H274.423L277.389 256.273H278.65V265H277.661V258.369H277.576L274.849 265H273.894L271.167 258.369H271.082V265H270.093V256.273ZM283.104 265.136C282.559 265.136 282.077 264.999 281.66 264.723C281.242 264.445 280.915 264.053 280.68 263.547C280.444 263.038 280.326 262.438 280.326 261.744C280.326 261.057 280.444 260.46 280.68 259.955C280.915 259.449 281.243 259.058 281.664 258.783C282.084 258.507 282.57 258.369 283.121 258.369C283.547 258.369 283.884 258.44 284.131 258.582C284.381 258.722 284.572 258.881 284.702 259.06C284.836 259.236 284.939 259.381 285.013 259.494H285.099V258.455H286.104V265H285.133V263.994H285.013C284.939 264.114 284.834 264.264 284.698 264.446C284.562 264.625 284.367 264.786 284.114 264.928C283.861 265.067 283.525 265.136 283.104 265.136ZM283.241 264.233C283.644 264.233 283.985 264.128 284.263 263.918C284.542 263.705 284.753 263.411 284.898 263.036C285.043 262.658 285.116 262.222 285.116 261.727C285.116 261.239 285.045 260.811 284.903 260.445C284.76 260.075 284.55 259.788 284.272 259.584C283.993 259.376 283.65 259.273 283.241 259.273C282.814 259.273 282.459 259.382 282.175 259.601C281.894 259.817 281.682 260.111 281.54 260.483C281.401 260.852 281.332 261.267 281.332 261.727C281.332 262.193 281.403 262.616 281.545 262.997C281.689 263.375 281.903 263.676 282.184 263.901C282.468 264.122 282.82 264.233 283.241 264.233ZM288.086 265V258.455H289.057V259.443H289.126C289.245 259.119 289.461 258.857 289.773 258.655C290.086 258.453 290.438 258.352 290.83 258.352C290.904 258.352 290.996 258.354 291.107 258.357C291.218 258.359 291.302 258.364 291.359 258.369V259.392C291.324 259.384 291.246 259.371 291.124 259.354C291.005 259.334 290.878 259.324 290.745 259.324C290.427 259.324 290.143 259.391 289.893 259.524C289.645 259.655 289.449 259.837 289.305 260.07C289.162 260.3 289.091 260.562 289.091 260.858V265H288.086Z" fill="#1C1C1C" fill-opacity="0.4"/>
<path d="M367.138 265H366.03L369.235 256.273H370.326L373.53 265H372.422L369.814 257.653H369.746L367.138 265ZM367.547 261.591H372.013V262.528H367.547V261.591ZM374.753 267.455V258.455H375.725V259.494H375.844C375.918 259.381 376.02 259.236 376.151 259.06C376.284 258.881 376.475 258.722 376.722 258.582C376.972 258.44 377.31 258.369 377.736 258.369C378.287 258.369 378.773 258.507 379.193 258.783C379.614 259.058 379.942 259.449 380.178 259.955C380.414 260.46 380.532 261.057 380.532 261.744C380.532 262.438 380.414 263.038 380.178 263.547C379.942 264.053 379.615 264.445 379.198 264.723C378.78 264.999 378.299 265.136 377.753 265.136C377.333 265.136 376.996 265.067 376.743 264.928C376.49 264.786 376.296 264.625 376.159 264.446C376.023 264.264 375.918 264.114 375.844 263.994H375.759V267.455H374.753ZM375.742 261.727C375.742 262.222 375.814 262.658 375.959 263.036C376.104 263.411 376.316 263.705 376.594 263.918C376.872 264.128 377.213 264.233 377.617 264.233C378.037 264.233 378.388 264.122 378.669 263.901C378.953 263.676 379.166 263.375 379.309 262.997C379.453 262.616 379.526 262.193 379.526 261.727C379.526 261.267 379.455 260.852 379.313 260.483C379.174 260.111 378.962 259.817 378.678 259.601C378.397 259.382 378.043 259.273 377.617 259.273C377.208 259.273 376.864 259.376 376.586 259.584C376.307 259.788 376.097 260.075 375.955 260.445C375.813 260.811 375.742 261.239 375.742 261.727ZM382.066 265V258.455H383.037V259.443H383.105C383.225 259.119 383.441 258.857 383.753 258.655C384.066 258.453 384.418 258.352 384.81 258.352C384.884 258.352 384.976 258.354 385.087 258.357C385.198 258.359 385.282 258.364 385.338 258.369V259.392C385.304 259.384 385.226 259.371 385.104 259.354C384.985 259.334 384.858 259.324 384.725 259.324C384.407 259.324 384.122 259.391 383.872 259.524C383.625 259.655 383.429 259.837 383.284 260.07C383.142 260.3 383.071 260.562 383.071 260.858V265H382.066Z" fill="#1C1C1C" fill-opacity="0.4"/>
<path d="M459.653 256.273H460.914L463.88 263.517H463.982L466.948 256.273H468.209V265H467.221V258.369H467.136L464.408 265H463.454L460.726 258.369H460.641V265H459.653V256.273ZM472.664 265.136C472.118 265.136 471.637 264.999 471.219 264.723C470.801 264.445 470.475 264.053 470.239 263.547C470.003 263.038 469.885 262.438 469.885 261.744C469.885 261.057 470.003 260.46 470.239 259.955C470.475 259.449 470.803 259.058 471.223 258.783C471.644 258.507 472.129 258.369 472.681 258.369C473.107 258.369 473.443 258.44 473.691 258.582C473.941 258.722 474.131 258.881 474.262 259.06C474.395 259.236 474.499 259.381 474.573 259.494H474.658V258.455H475.664V265H474.692V263.994H474.573C474.499 264.114 474.394 264.264 474.257 264.446C474.121 264.625 473.926 264.786 473.674 264.928C473.421 265.067 473.084 265.136 472.664 265.136ZM472.8 264.233C473.203 264.233 473.544 264.128 473.823 263.918C474.101 263.705 474.313 263.411 474.458 263.036C474.602 262.658 474.675 262.222 474.675 261.727C474.675 261.239 474.604 260.811 474.462 260.445C474.32 260.075 474.11 259.788 473.831 259.584C473.553 259.376 473.209 259.273 472.8 259.273C472.374 259.273 472.019 259.382 471.735 259.601C471.453 259.817 471.242 260.111 471.1 260.483C470.96 260.852 470.891 261.267 470.891 261.727C470.891 262.193 470.962 262.616 471.104 262.997C471.249 263.375 471.462 263.676 471.743 263.901C472.027 264.122 472.379 264.233 472.8 264.233ZM478.293 267.455C478.122 267.455 477.97 267.44 477.837 267.412C477.703 267.386 477.611 267.361 477.56 267.335L477.816 266.449C478.06 266.511 478.276 266.534 478.463 266.517C478.651 266.5 478.817 266.416 478.962 266.266C479.11 266.118 479.245 265.878 479.367 265.545L479.554 265.034L477.134 258.455H478.225L480.031 263.67H480.1L481.906 258.455H482.997L480.219 265.955C480.094 266.293 479.939 266.572 479.754 266.794C479.57 267.018 479.355 267.185 479.111 267.293C478.87 267.401 478.597 267.455 478.293 267.455Z" fill="#1C1C1C" fill-opacity="0.4"/>
<path d="M560.477 256.273H561.534V262.511C561.534 263.068 561.432 263.541 561.227 263.93C561.023 264.32 560.734 264.615 560.362 264.817C559.99 265.018 559.551 265.119 559.045 265.119C558.568 265.119 558.143 265.033 557.771 264.859C557.399 264.683 557.106 264.433 556.893 264.109C556.68 263.786 556.574 263.401 556.574 262.955H557.614C557.614 263.202 557.675 263.418 557.797 263.602C557.922 263.784 558.092 263.926 558.308 264.028C558.524 264.131 558.77 264.182 559.045 264.182C559.349 264.182 559.608 264.118 559.821 263.99C560.034 263.862 560.196 263.675 560.307 263.428C560.42 263.178 560.477 262.872 560.477 262.511V256.273ZM567.641 262.324V258.455H568.646V265H567.641V263.892H567.572C567.419 264.224 567.18 264.507 566.856 264.74C566.533 264.97 566.123 265.085 565.629 265.085C565.22 265.085 564.856 264.996 564.538 264.817C564.22 264.635 563.97 264.362 563.788 263.999C563.606 263.632 563.516 263.17 563.516 262.614V258.455H564.521V262.545C564.521 263.023 564.655 263.403 564.922 263.688C565.192 263.972 565.535 264.114 565.953 264.114C566.203 264.114 566.457 264.05 566.716 263.922C566.977 263.794 567.196 263.598 567.372 263.334C567.551 263.07 567.641 262.733 567.641 262.324ZM571.494 261.062V265H570.488V258.455H571.46V259.477H571.545C571.698 259.145 571.931 258.878 572.244 258.676C572.556 258.472 572.96 258.369 573.454 258.369C573.897 258.369 574.285 258.46 574.617 258.642C574.95 258.821 575.208 259.094 575.393 259.46C575.578 259.824 575.67 260.284 575.67 260.841V265H574.664V260.909C574.664 260.395 574.531 259.994 574.264 259.707C573.997 259.418 573.63 259.273 573.164 259.273C572.843 259.273 572.556 259.342 572.304 259.482C572.054 259.621 571.856 259.824 571.711 260.091C571.566 260.358 571.494 260.682 571.494 261.062Z" fill="#1C1C1C" fill-opacity="0.4"/>
<mask id="mask0_6152_2485" style="mask-type:alpha" maskUnits="userSpaceOnUse" x="62" y="86" width="538" height="109">
<rect x="62.0851" y="86.4694" width="537.851" height="107.603" fill="url(#paint0_radial_6152_2485)"/>
</mask>
<g mask="url(#mask0_6152_2485)">
<path opacity="0.2" d="M249.277 175.442C156.542 184.122 104.672 167.635 62.234 146.653V286.674H599.787V106.642C418.507 92.9791 357.207 165.34 249.277 175.442Z" fill="#1C1C1C"/>
<path opacity="0.4" d="M275.556 136.053C165.781 97.6573 84.9031 158.063 62.234 178.778V286.674H599.787V86.4694C484.293 131.403 473.116 205.152 275.556 136.053Z" fill="#A8C5DA"/>
</g>
<path d="M62.234 146.653C104.672 167.635 156.542 184.122 249.277 175.442C303.142 170.4 345.393 149.851 396.74 132.228" stroke="#1C1C1C" stroke-width="3" stroke-linecap="round" stroke-linejoin="round"/>
<path d="M599.787 106.641C509.568 99.842 449.066 114.349 397.744 131.884" stroke="#1C1C1C" stroke-width="3" stroke-linecap="round" stroke-linejoin="round" stroke-dasharray="3 10"/>
<path d="M62.234 178.778C84.9031 158.063 165.781 97.6573 275.556 136.053C473.116 205.152 484.293 131.403 599.787 86.4694" stroke="#A8C5DA" stroke-width="3" stroke-linecap="round" stroke-linejoin="round"/>
<path d="M249.277 175.298C302.228 170.342 343.955 150.401 394.132 132.984" stroke="#1C1C1C" stroke-width="3" stroke-linecap="round" stroke-linejoin="round"/>
<defs>
<radialGradient id="paint0_radial_6152_2485" cx="0" cy="0" r="1" gradientUnits="userSpaceOnUse" gradientTransform="translate(306.747 99.4025) rotate(87) scale(57.9527 239.348)">
<stop/>
<stop offset="1" stop-color="#D9D9D9" stop-opacity="0"/>
</radialGradient>
</defs>
</svg>
